<?xml version="1.0" standalone="no"?>
<!DOCTYPE svg PUBLIC "-//W3C//DTD SVG 20010904//EN"
 "http://www.w3.org/TR/2001/REC-SVG-20010904/DTD/svg10.dtd">
<svg version="1.0" xmlns="http://www.w3.org/2000/svg"
 width="500.000000pt" height="500.000000pt" viewBox="0 0 500.000000 500.000000"
 preserveAspectRatio="xMidYMid meet">
<g transform="translate(0.000000,500.000000) scale(0.100000,-0.100000)"
fill="#000000" stroke="none">
<path d="M2585 4725 c-22 -44 -73 -142 -112 -218 -40 -76 -73 -141 -73 -143 0
-3 15 -3 33 0 104 15 127 18 127 12 0 -6 -34 -130 -46 -168 -5 -17 -2 -19 21
-16 24 3 38 23 112 158 92 167 101 186 87 178 -5 -3 -38 -9 -74 -12 -36 -4
-73 -9 -82 -12 -24 -7 -23 -5 17 153 20 75 34 139 33 142 -2 3 -21 -30 -43
-74z m-45 -179 c-9 -24 -8 -51 1 -60 10 -10 100 -12 106 -3 4 6 1 7 -7 2 -9
-5 -11 -4 -6 3 11 19 47 -4 39 -25 -5 -12 -3 -14 8 -8 12 8 12 6 0 -9 -8 -9
-19 -15 -25 -13 -6 3 -12 -7 -13 -21 0 -14 -8 -31 -17 -38 -9 -6 -16 -16 -14
-20 4 -18 -14 -54 -24 -48 -7 5 -9 1 -5 -9 3 -9 -1 -18 -10 -21 -11 -5 -13 -2
-8 11 4 10 7 26 7 35 0 10 4 20 9 23 5 4 7 11 4 16 -4 5 -1 9 6 9 8 0 8 4 -1
15 -7 8 -19 15 -27 15 -13 0 -13 3 -2 18 12 15 12 16 -2 4 -9 -6 -29 -14 -45
-16 -16 -3 -40 -7 -54 -10 -14 -4 -19 -4 -12 0 6 3 10 10 6 15 -3 5 3 9 13 9
15 0 16 2 3 10 -13 8 -13 11 -1 22 11 11 13 11 6 -1 -5 -9 -4 -12 3 -7 6 4 9
13 5 21 -3 8 0 15 6 15 6 0 11 9 11 20 0 11 5 20 11 20 5 0 7 5 4 10 -3 6 -1
10 5 10 7 0 10 6 7 14 -6 16 2 28 14 20 5 -2 4 -15 -1 -28z m160 -56 c0 -5 -2
-10 -4 -10 -3 0 -8 5 -11 10 -3 6 -1 10 4 10 6 0 11 -4 11 -10z"/>
<path d="M2649 4463 c-13 -16 -12 -17 4 -4 9 7 17 15 17 17 0 8 -8 3 -21 -13z"/>
<path d="M2789 4578 c-5 -16 -4 -46 2 -42 4 2 7 13 6 24 -1 17 -5 26 -8 18z"/>
<path d="M2780 4461 c0 -6 4 -13 10 -16 6 -3 7 1 4 9 -7 18 -14 21 -14 7z"/>
<path d="M2625 4209 c-4 -6 -5 -12 -2 -15 2 -3 7 2 10 11 7 17 1 20 -8 4z"/>
<path d="M2496 4147 c3 -10 9 -15 12 -12 3 3 0 11 -7 18 -10 9 -11 8 -5 -6z"/>
<path d="M3025 4029 c-4 -6 -5 -12 -2 -15 2 -3 7 2 10 11 7 17 1 20 -8 4z"/>
<path d="M3100 4021 c0 -6 4 -13 10 -16 6 -3 7 1 4 9 -7 18 -14 21 -14 7z"/>
<path d="M2380 4009 c-119 -6 -180 -11 -299 -25 l-53 -7 6 -36 c3 -20 6 -44 6
-54 0 -10 4 -16 8 -13 4 2 37 7 72 11 36 4 96 10 135 15 128 16 466 10 639
-11 89 -10 164 -19 168 -19 3 0 9 15 13 33 4 17 8 39 11 48 4 13 -10 18 -78
27 -224 30 -434 40 -628 31z m155 -19 c-4 -7 2 -9 18 -5 14 4 35 1 47 -5 12
-7 20 -8 16 -2 -3 5 9 9 28 8 19 0 32 -5 28 -10 -3 -6 3 -6 14 -1 23 9 32 10
106 2 64 -6 82 -13 72 -29 -5 -7 -2 -8 5 -4 7 5 10 15 7 23 -4 9 -2 11 7 6 6
-4 23 -9 37 -10 69 -5 130 -17 131 -24 7 -47 6 -48 -71 -32 -19 4 -47 7 -62 6
-16 0 -28 4 -28 9 0 5 -9 4 -20 -2 -16 -9 -20 -8 -20 4 0 12 -5 13 -22 7 -24
-9 -41 -8 -72 5 -15 6 -17 4 -11 -6 6 -9 4 -11 -6 -5 -19 12 -228 19 -327 10
-32 -2 -42 0 -39 9 3 7 -1 13 -8 13 -7 0 -11 -6 -8 -12 3 -8 -9 -14 -32 -17
-28 -3 -34 -1 -30 10 5 13 3 13 -11 1 -10 -8 -32 -15 -49 -15 -18 -1 -38 -5
-45 -9 -9 -6 -11 -4 -5 5 6 10 4 12 -11 6 -10 -4 -30 -10 -44 -12 -14 -3 -31
-7 -38 -9 -8 -3 -10 0 -6 8 5 7 1 6 -10 -2 -16 -14 -17 -13 -14 14 3 27 6 29
41 29 20 0 37 3 37 6 0 4 21 8 48 9 26 2 64 4 84 5 24 2 35 -1 31 -8 -5 -8 -3
-8 8 0 8 5 26 10 41 9 15 0 25 2 23 5 -7 11 91 11 120 0 14 -5 24 -6 21 -1 -4
5 0 12 6 14 19 8 20 8 13 -3z"/>
<path d="M2576 3967 c3 -10 9 -15 12 -12 3 3 0 11 -7 18 -10 9 -11 8 -5 -6z"/>
<path d="M2365 3740 c-198 -13 -503 -52 -527 -66 -4 -3 -3 -17 3 -32 6 -15 10
-28 10 -29 -1 -2 -1 -12 -1 -22 0 -17 4 -18 33 -11 17 5 50 11 72 14 22 3 51
8 65 10 150 28 657 50 742 32 13 -3 57 -8 98 -11 41 -3 102 -10 135 -15 33 -5
78 -12 100 -15 22 -4 57 -10 77 -15 37 -8 38 -8 44 29 3 20 8 43 10 51 3 13
-13 18 -83 29 -49 7 -95 15 -103 16 -63 11 -190 23 -360 35 -156 10 -152 10
-315 0z m460 -35 c65 -8 152 -17 187 -19 46 -2 56 -11 35 -34 -17 -19 -70 -23
-84 -7 -5 4 -3 5 3 2 6 -3 11 0 11 8 0 13 -3 13 -18 -1 -14 -13 -22 -13 -39
-4 -14 8 -20 8 -16 1 5 -7 -2 -7 -21 -1 -15 5 -35 8 -43 7 -8 -1 -69 3 -135 8
-116 8 -146 8 -340 0 -99 -4 -195 -14 -207 -21 -4 -3 -8 -1 -8 4 0 6 -7 13
-16 16 -14 5 -15 4 -5 -8 10 -11 7 -14 -11 -14 -54 -1 -96 -6 -93 -12 2 -4
-16 -6 -41 -5 -24 1 -47 -2 -50 -6 -3 -5 -10 -7 -15 -3 -5 3 -7 9 -4 14 10 17
-13 19 -26 3 -10 -12 -10 -14 -1 -9 6 4 12 2 12 -3 0 -6 -6 -11 -14 -11 -15 0
-25 27 -18 49 4 11 6 11 13 0 6 -9 12 -10 17 -4 13 17 41 14 34 -4 -5 -14 -3
-14 11 -2 9 7 14 18 10 24 -4 6 -1 7 6 3 7 -5 10 -13 8 -20 -3 -6 3 -12 13
-12 10 0 18 3 18 6 -2 22 5 30 26 30 14 0 37 5 51 10 20 8 35 7 55 -4 24 -12
28 -12 23 0 -4 10 3 14 23 15 99 3 198 10 202 13 5 6 400 -3 447 -9z m278 -58
c-3 -6 -1 -7 6 -3 6 4 9 11 6 16 -3 5 0 12 6 16 8 4 9 3 5 -4 -4 -7 -1 -12 10
-12 11 0 15 -6 12 -18 -3 -11 0 -19 7 -19 7 0 10 10 7 25 -4 22 -3 23 16 11
11 -7 18 -17 15 -22 -3 -5 -10 -3 -15 4 -5 9 -6 4 -2 -15 6 -23 4 -27 -7 -20
-8 5 -21 9 -29 9 -8 0 -26 7 -40 14 -24 14 -24 13 -10 -4 14 -17 14 -18 -7 -6
-13 6 -23 9 -23 6 0 -4 -5 -3 -10 0 -8 5 -7 11 1 21 6 7 15 11 20 8 5 -3 9 -2
8 3 -3 20 2 25 16 13 8 -7 12 -17 8 -23z"/>
<path d="M3016 3663 c-6 -14 -5 -15 5 -6 7 7 10 15 7 18 -3 3 -9 -2 -12 -12z"/>
<path d="M3264 3699 c-3 -6 -2 -15 3 -20 5 -5 9 -1 9 11 0 23 -2 24 -12 9z"/>
<path d="M3269 3608 c-5 -18 -6 -38 -1 -34 7 8 12 36 6 36 -2 0 -4 -1 -5 -2z"/>
<path d="M2710 3586 c0 -2 8 -10 18 -17 15 -13 16 -12 3 4 -13 16 -21 21 -21
13z"/>
<path d="M3126 3467 c3 -10 9 -15 12 -12 3 3 0 11 -7 18 -10 9 -11 8 -5 -6z"/>
<path d="M2479 3456 c-2 -2 -74 -6 -159 -9 -85 -4 -189 -11 -230 -16 -41 -6
-97 -13 -125 -16 -77 -9 -168 -23 -310 -50 -71 -14 -141 -27 -155 -30 -14 -3
-46 -10 -72 -17 l-48 -12 0 -1181 0 -1181 55 -54 55 -54 -2 1197 c-2 658 -2
1197 0 1197 2 0 69 13 150 29 81 16 167 32 192 36 25 3 56 8 70 10 14 2 45 7
70 10 25 3 61 8 80 10 56 8 124 13 308 25 183 11 421 2 637 -25 22 -3 63 -7
90 -10 28 -3 76 -10 108 -15 31 -6 85 -15 120 -20 34 -6 108 -20 165 -32 l102
-21 -2 -1188 c-2 -654 -1 -1189 2 -1189 3 0 27 22 53 48 l47 48 0 1181 0 1181
-27 6 c-16 3 -59 13 -98 21 -257 58 -567 99 -860 115 -217 11 -210 11 -216 6z
m255 -38 c-3 -5 -10 -5 -16 -2 -7 4 -8 2 -4 -4 6 -11 15 -10 54 5 30 11 42 11
48 2 3 -5 10 -7 15 -4 5 4 9 1 9 -5 0 -7 6 -8 15 -2 9 4 39 5 68 0 29 -4 79
-10 112 -13 102 -9 195 -26 201 -37 4 -6 9 -5 14 3 6 9 13 10 22 3 7 -6 24
-10 38 -10 14 1 31 -6 38 -14 8 -8 11 -10 8 -4 -3 6 2 11 10 11 8 0 13 -6 10
-12 -2 -6 2 -12 10 -12 7 0 11 4 8 9 -3 4 0 8 5 8 6 0 12 -8 12 -17 1 -17 2
-17 6 0 3 13 10 16 26 11 12 -4 32 -8 45 -8 12 0 22 -3 22 -6 0 -3 13 -7 30
-8 16 -1 41 -7 56 -12 14 -6 30 -7 36 -4 7 4 8 2 4 -4 -4 -8 0 -12 11 -12 15
0 15 -2 3 -9 -8 -6 -18 -7 -22 -5 -15 9 -8 -3 9 -17 11 -10 14 -10 9 -1 -4 6
-4 12 1 12 12 0 10 -2263 -2 -2272 -6 -5 -4 -12 5 -19 13 -9 13 -10 -1 -6 -13
4 -15 1 -11 -15 4 -18 3 -19 -15 -8 -10 7 -19 22 -20 34 0 11 -1 524 -2 1138
l-1 1117 -22 16 c-13 8 -30 15 -39 15 -9 0 -22 7 -29 15 -10 12 -16 13 -28 3
-13 -10 -14 -10 -8 0 4 6 2 12 -3 12 -6 0 -11 -5 -11 -11 0 -8 -4 -8 -15 1 -8
6 -18 9 -24 6 -5 -3 -11 1 -15 9 -3 8 -13 15 -23 14 -16 0 -16 -2 2 -10 15 -6
11 -7 -15 -3 -19 4 -40 11 -47 16 -7 5 -13 5 -17 -1 -3 -5 -15 -7 -26 -4 -11
3 -17 10 -13 17 4 6 -1 5 -10 -3 -12 -9 -17 -10 -17 -2 0 7 -5 9 -11 5 -6 -3
-15 0 -20 7 -7 11 -9 11 -9 1 0 -7 -4 -11 -9 -8 -4 3 -37 8 -72 12 -72 7 -112
12 -119 14 -6 3 -22 6 -35 9 -5 1 -3 6 5 12 13 9 13 10 0 6 -8 -2 -14 -9 -13
-15 2 -6 -6 -10 -17 -9 -10 1 -16 5 -13 10 3 5 -4 6 -15 3 -11 -4 -23 -2 -27
5 -6 8 -10 7 -16 -2 -7 -11 -9 -11 -9 -1 0 7 -4 10 -10 7 -5 -3 -10 0 -10 7 0
9 -3 9 -8 2 -8 -12 -233 -14 -225 -1 2 4 -2 7 -9 7 -10 0 -9 3 2 11 13 9 13
10 0 6 -8 -2 -14 -9 -13 -15 2 -7 -22 -10 -67 -9 -39 1 -70 0 -70 -3 0 -3 -36
-5 -80 -4 -54 1 -80 -2 -80 -10 0 -7 -3 -7 -8 -1 -9 12 -32 18 -32 8 0 -5 -15
-9 -32 -10 -104 -5 -155 -10 -165 -16 -6 -4 -14 -1 -16 5 -4 10 -8 9 -16 -2
-10 -13 -11 -13 -11 0 0 10 -3 11 -8 4 -8 -13 -116 -32 -168 -29 -19 1 -34 -2
-34 -6 0 -4 -11 -6 -25 -4 -14 1 -25 -1 -25 -6 0 -4 -13 -7 -28 -7 -15 1 -37
-3 -47 -9 -11 -5 -26 -8 -32 -7 -7 1 -21 2 -30 3 -16 1 -16 3 -3 11 8 5 10 10
4 10 -17 0 -25 -12 -15 -24 6 -8 -2 -12 -27 -14 -39 -3 -133 -43 -115 -49 6
-2 9 -13 6 -23 -3 -11 -9 -18 -12 -15 -4 2 -8 -2 -8 -10 0 -8 4 -12 9 -9 4 3
8 -506 8 -1130 l0 -1136 -24 21 c-14 12 -22 28 -19 35 3 8 1 14 -3 14 -5 0 -7
508 -4 1137 4 967 7 1138 19 1135 11 -2 10 3 -3 23 -9 14 -15 25 -14 26 24 6
96 17 126 18 7 1 11 5 8 9 -3 5 5 8 17 7 12 -1 29 1 38 6 10 5 21 3 29 -4 10
-10 11 -9 5 3 -8 13 -7 13 10 0 11 -9 16 -10 11 -2 -4 6 -4 12 1 13 4 0 17 3
28 5 46 11 65 11 65 0 0 -7 3 -7 8 1 11 18 63 24 81 10 10 -8 13 -9 8 0 -10
17 78 33 200 36 33 1 59 5 57 9 -2 4 0 9 6 13 5 3 10 1 10 -5 0 -7 8 -9 21 -5
12 4 50 8 85 9 35 2 66 5 69 8 9 8 444 4 439 -4z m886 -2493 c0 -8 -2 -15 -4
-15 -2 0 -6 7 -10 15 -3 8 -1 15 4 15 6 0 10 -7 10 -15z"/>
<path d="M2165 3391 c-10 -17 17 -24 31 -7 8 9 9 11 2 6 -16 -13 -31 -13 -23
0 3 6 4 10 1 10 -3 0 -7 -4 -11 -9z"/>
<path d="M2080 3386 c0 -3 9 -10 20 -16 11 -6 20 -8 20 -6 0 3 -9 10 -20 16
-11 6 -20 8 -20 6z"/>
<path d="M3287 3335 c-4 -8 -3 -16 1 -19 4 -3 9 4 9 15 2 23 -3 25 -10 4z"/>
<path d="M1425 980 c6 -30 16 -40 12 -12 -2 12 -6 24 -10 28 -3 4 -4 -4 -2
-16z"/>
<path d="M3613 985 c0 -8 4 -12 9 -9 5 3 6 10 3 15 -9 13 -12 11 -12 -6z"/>
<path d="M1522 3391 c-11 -7 -11 -9 0 -14 9 -3 15 1 15 9 0 8 -1 14 -1 14 -1
0 -7 -4 -14 -9z"/>
<path d="M1980 3271 c0 -6 4 -13 10 -16 6 -3 7 1 4 9 -7 18 -14 21 -14 7z"/>
<path d="M3185 3250 c-3 -6 1 -7 9 -4 18 7 21 14 7 14 -6 0 -13 -4 -16 -10z"/>
<path d="M3253 2905 c0 -8 4 -12 9 -9 5 3 6 10 3 15 -9 13 -12 11 -12 -6z"/>
<path d="M1947 2899 c-196 -32 -324 -231 -273 -427 27 -107 92 -182 196 -230
45 -21 70 -26 137 -25 72 0 91 4 147 32 127 62 194 170 194 313 0 67 -4 87
-33 146 -67 140 -213 216 -368 191z m125 -23 c7 4 8 3 4 -4 -5 -8 2 -11 23 -8
17 2 29 0 26 -4 -2 -3 12 -12 31 -19 18 -7 34 -17 34 -24 0 -8 -3 -8 -12 1 -7
7 -16 12 -22 12 -5 0 -1 -6 10 -14 15 -11 22 -12 33 -3 12 9 13 9 7 0 -4 -8
-2 -13 8 -13 8 0 18 -5 22 -12 4 -6 3 -8 -3 -5 -5 3 -10 0 -10 -8 0 -8 4 -12
9 -8 14 8 53 -40 62 -77 1 -3 8 -16 15 -29 7 -13 11 -34 8 -47 -2 -13 -1 -24
3 -24 4 0 6 -24 4 -52 -3 -63 -6 -76 -22 -104 -6 -12 -8 -25 -4 -29 4 -5 1 -5
-5 -1 -7 4 -13 3 -13 -2 0 -16 -91 -112 -101 -106 -5 3 -6 -3 -2 -13 6 -16 5
-17 -13 -3 -10 8 -16 10 -12 6 13 -15 -24 -35 -44 -25 -11 6 -19 5 -24 -3 -5
-7 -3 -8 6 -3 8 5 11 4 6 -3 -3 -6 -15 -9 -26 -7 -11 2 -22 0 -25 -5 -4 -7
-25 -7 -45 0 -3 1 -16 3 -30 3 -24 2 -37 31 -15 32 6 1 20 5 33 9 28 9 53 -8
45 -32 -4 -14 -3 -15 5 -2 6 8 8 18 6 22 -3 4 0 8 6 8 6 0 8 4 5 10 -4 6 1 7
11 3 13 -5 15 -3 9 8 -7 11 -5 11 10 -1 15 -12 17 -12 10 -1 -6 11 -4 13 8 8
10 -3 17 -3 17 2 0 5 15 15 33 23 17 8 26 13 19 11 -7 -1 -10 2 -7 7 3 6 11
10 17 10 6 0 17 8 25 18 8 10 11 11 7 2 -7 -13 -5 -13 9 -1 18 15 23 26 7 16
-5 -3 -10 -2 -10 4 0 5 6 14 14 18 24 14 47 66 33 75 -8 5 -9 8 -1 8 13 0 12
99 -1 120 -5 9 -4 11 3 6 7 -4 12 -3 12 3 0 5 -8 15 -17 20 -17 10 -17 10 1
11 16 0 13 5 -15 26 -19 15 -26 24 -17 21 10 -3 20 -1 24 5 4 6 3 8 -3 5 -11
-7 -53 28 -53 43 0 6 -6 9 -12 8 -7 -2 -12 3 -10 10 1 8 -2 11 -8 7 -12 -7
-42 13 -36 24 2 3 -12 7 -31 8 -19 1 -41 7 -49 14 -11 9 -14 9 -14 -2 0 -9 -3
-10 -8 -4 -4 6 -20 11 -37 12 -19 2 -25 -1 -17 -6 9 -5 3 -8 -16 -7 -17 1 -28
6 -25 11 2 6 -2 2 -9 -7 -10 -11 -19 -14 -29 -7 -24 15 -34 10 -13 -7 19 -15
18 -15 -3 -11 -13 3 -23 1 -23 -4 0 -12 -43 -5 -47 7 -5 14 55 46 69 38 7 -4
8 -3 4 4 -5 8 2 12 18 12 14 0 26 5 26 10 0 7 13 8 36 4 25 -5 35 -3 30 4 -4
7 4 8 29 1 19 -6 40 -7 47 -3z m-223 -91 c22 2 23 1 6 -11 -10 -7 -22 -11 -26
-8 -5 3 -9 1 -9 -4 0 -5 -11 -21 -25 -34 -50 -50 -74 -179 -47 -249 8 -19 7
-30 0 -37 -9 -9 -6 -10 9 -8 12 3 20 -1 21 -10 1 -8 3 -21 4 -28 1 -8 6 -14
12 -13 6 1 10 -4 8 -11 -1 -8 2 -11 7 -8 5 3 14 -1 21 -9 7 -8 16 -13 20 -10
5 3 12 0 16 -6 4 -8 3 -9 -4 -5 -7 4 -12 2 -12 -3 0 -6 11 -11 24 -11 14 0 28
-5 31 -10 4 -6 12 -7 18 -3 7 4 5 -2 -3 -12 -14 -17 -14 -18 9 -6 18 10 25 10
35 0 8 -9 8 -10 -1 -5 -6 3 -18 -2 -25 -11 -16 -22 -38 -28 -38 -11 0 9 -4 8
-10 -2 -7 -11 -10 -11 -10 -2 0 8 -5 10 -12 6 -8 -5 -9 -2 -5 10 4 9 3 15 -2
11 -13 -7 -42 5 -35 16 3 5 -2 6 -10 3 -11 -4 -16 0 -16 10 0 9 -6 16 -14 16
-21 0 -40 26 -25 36 7 4 9 3 5 -4 -3 -6 -2 -13 3 -16 5 -4 8 2 6 11 -1 11 -9
17 -20 15 -9 -2 -15 1 -12 6 3 4 -5 20 -17 33 -44 48 -53 207 -14 262 12 17
17 28 11 24 -7 -5 -9 0 -6 13 3 11 9 23 14 26 5 3 6 -1 3 -9 -3 -8 0 -18 7
-23 7 -4 10 -3 6 4 -11 17 4 44 21 37 12 -4 12 -3 3 8 -14 18 11 43 31 31 9
-5 8 -1 -2 12 -14 18 -14 18 5 3 11 -9 31 -15 44 -14z m256 -5 c80 -34 133
-107 142 -194 15 -148 -92 -268 -240 -268 -139 0 -241 102 -241 242 0 124 77
214 209 243 29 7 84 -3 130 -23z"/>
<path d="M2297 2629 c4 -13 8 -18 11 -10 2 7 -1 18 -6 23 -8 8 -9 4 -5 -13z"/>
<path d="M2276 2445 c-9 -26 -7 -32 5 -12 6 10 9 21 6 23 -2 3 -7 -2 -11 -11z"/>
<path d="M1810 2336 c0 -2 7 -7 16 -10 8 -3 12 -2 9 4 -6 10 -25 14 -25 6z"/>
<path d="M1905 2731 c-3 -5 -2 -12 3 -15 5 -3 9 1 9 9 0 17 -3 19 -12 6z"/>
<path d="M1883 2695 c0 -8 4 -12 9 -9 5 3 6 10 3 15 -9 13 -12 11 -12 -6z"/>
<path d="M1800 2501 c0 -6 4 -13 10 -16 6 -3 7 1 4 9 -7 18 -14 21 -14 7z"/>
<path d="M1893 2415 c0 -8 4 -12 9 -9 5 3 6 10 3 15 -9 13 -12 11 -12 -6z"/>
<path d="M2982 2899 c-115 -19 -221 -106 -262 -217 -18 -47 -21 -72 -18 -142
5 -99 25 -147 94 -220 125 -134 347 -140 483 -12 75 70 105 144 104 252 0 93
-14 135 -65 207 -72 100 -207 153 -336 132z m101 -23 c-4 -5 1 -7 9 -3 9 3 28
-1 43 -9 15 -8 31 -12 35 -9 4 3 19 -4 31 -16 13 -11 17 -17 9 -13 -13 7 -13
5 -2 -8 17 -22 -3 -35 -25 -16 -12 9 -15 9 -9 1 9 -16 1 -16 -25 -2 -11 5 -17
14 -14 18 2 5 -10 8 -28 8 -18 -1 -38 2 -44 6 -6 4 -14 3 -18 -3 -3 -5 -12
-10 -18 -10 -7 0 -6 4 3 10 11 8 7 9 -15 4 -16 -4 -35 -7 -42 -7 -7 0 -10 -3
-8 -6 2 -4 -7 -11 -20 -17 -22 -11 -23 -10 -14 15 9 24 8 25 -6 7 -8 -11 -15
-26 -15 -33 0 -7 -7 -13 -15 -13 -8 0 -14 3 -14 8 3 19 -2 23 -15 13 -10 -9
-15 -8 -20 4 -5 13 5 20 27 16 4 0 7 4 7 10 0 6 7 8 16 5 8 -3 12 -2 9 3 -7
12 31 24 46 15 8 -4 9 -3 5 4 -7 12 -4 13 57 17 15 1 29 4 32 6 9 9 43 4 38
-5z m162 -66 c4 -6 1 -19 -6 -28 -10 -12 -8 -12 9 2 18 16 22 17 17 4 -4 -11
1 -20 17 -28 22 -11 22 -10 4 4 -11 9 -15 16 -9 16 6 0 16 -7 23 -15 7 -8 10
-15 6 -15 -4 0 1 -11 9 -24 15 -23 15 -25 -2 -36 -16 -10 -16 -11 -1 -6 19 6
31 -11 42 -59 5 -22 4 -26 -4 -15 -6 9 -10 10 -10 3 0 -6 5 -15 11 -19 13 -8
7 -123 -7 -145 -5 -8 -10 -23 -11 -34 -4 -21 -22 -37 -35 -29 -5 3 -8 2 -6 -3
1 -4 -7 -23 -18 -40 -21 -35 -65 -60 -86 -47 -11 6 -11 5 0 -8 12 -15 9 -18
-22 -24 -20 -3 -36 -10 -36 -15 0 -5 -12 -4 -26 2 -22 8 -25 7 -16 -3 8 -10 2
-13 -29 -13 -22 0 -37 4 -35 10 2 6 9 9 15 7 7 -1 9 3 6 9 -5 7 -10 8 -18 0
-11 -11 -51 5 -43 18 3 4 -1 8 -9 8 -11 0 -12 -4 -4 -14 10 -11 5 -12 -22 -9
-49 6 -89 23 -95 41 -3 8 -11 12 -17 8 -6 -4 -8 2 -4 16 4 18 3 20 -8 11 -11
-9 -18 -5 -32 17 -9 15 -22 31 -27 34 -5 4 -5 12 -1 19 5 8 4 11 -2 7 -11 -7
-34 50 -38 97 -5 50 7 146 20 159 6 7 10 17 8 24 -2 6 1 15 8 19 7 4 9 3 6 -2
-3 -6 4 -11 16 -11 16 -2 18 0 8 6 -8 5 -10 14 -6 21 5 9 4 11 -3 6 -8 -4 -10
-2 -6 8 3 8 12 17 20 20 8 3 18 15 22 27 8 20 9 20 23 3 11 -15 12 -16 0 -9
-10 6 -12 4 -7 -4 6 -9 12 -8 26 4 17 15 18 15 16 1 -4 -29 -23 -41 -43 -25
-10 7 -15 9 -11 5 4 -5 0 -15 -10 -23 -16 -12 -16 -13 1 -7 9 3 17 1 17 -5 0
-6 -4 -11 -9 -11 -12 0 -40 -86 -45 -137 -2 -22 -7 -46 -11 -53 -5 -8 -4 -11
2 -7 6 4 13 -9 17 -32 3 -22 13 -47 22 -55 8 -9 11 -16 5 -16 -6 0 -8 -7 -4
-16 5 -13 7 -13 14 -2 9 13 9 13 13 -24 0 -7 7 -13 14 -13 8 0 19 -7 25 -15 7
-9 27 -22 44 -29 18 -7 31 -17 28 -21 -2 -4 10 -8 28 -8 58 -2 72 -5 85 -21 8
-9 11 -11 8 -6 -2 6 -1 17 5 25 5 9 9 10 9 3 0 -6 9 -9 20 -6 11 3 18 9 15 13
-2 4 6 6 18 6 12 -1 28 3 36 8 16 13 54 15 61 4 3 -4 12 3 19 15 10 17 10 19
0 10 -10 -10 -16 -10 -28 0 -8 6 -12 7 -8 1 3 -6 0 -11 -8 -11 -11 0 -12 4 -3
14 6 7 13 11 16 8 7 -7 52 47 46 57 -3 4 0 8 6 8 6 0 8 5 5 10 -3 6 0 12 7 15
21 8 31 147 14 194 -6 18 -5 22 5 16 8 -4 4 2 -7 12 -12 10 -20 26 -19 36 2 9
0 15 -4 13 -4 -3 -12 4 -19 14 -10 17 -9 18 6 14 13 -5 14 -4 3 4 -8 6 -19 8
-26 6 -6 -3 -17 1 -24 9 -9 11 -8 17 4 27 8 7 12 16 9 21 -3 5 -1 9 5 9 5 0
13 -5 16 -10z m-109 -25 c80 -33 154 -141 154 -225 0 -75 -67 -183 -136 -218
-159 -82 -354 36 -354 213 0 97 45 176 122 216 76 39 142 43 214 14z m-130
-538 c3 -2 -7 -4 -21 -4 -14 0 -27 3 -30 7 -5 8 43 5 51 -3z"/>
<path d="M3038 2853 c7 -3 16 -2 19 1 4 3 -2 6 -13 5 -11 0 -14 -3 -6 -6z"/>
<path d="M3296 2712 c-3 -5 1 -9 9 -9 8 0 12 4 9 9 -3 4 -7 8 -9 8 -2 0 -6 -4
-9 -8z"/>
<path d="M3321 2614 c0 -11 3 -14 6 -6 3 7 2 16 -1 19 -3 4 -6 -2 -5 -13z"/>
<path d="M3303 2419 c11 -17 14 -16 20 7 1 4 -6 8 -15 10 -14 2 -15 -1 -5 -17z"/>
<path d="M2879 2303 c-13 -16 -12 -17 4 -4 16 13 21 21 13 21 -2 0 -10 -8 -17
-17z"/>
<path d="M2905 2300 c-3 -6 1 -7 9 -4 18 7 21 14 7 14 -6 0 -13 -4 -16 -10z"/>
<path d="M3180 2706 c0 -2 7 -7 16 -10 8 -3 12 -2 9 4 -6 10 -25 14 -25 6z"/>
<path d="M3167 2429 c7 -7 15 -10 18 -7 3 3 -2 9 -12 12 -14 6 -15 5 -6 -5z"/>
<path d="M2280 2826 c0 -2 8 -10 18 -17 15 -13 16 -12 3 4 -13 16 -21 21 -21
13z"/>
<path d="M1130 2130 l0 -616 45 0 45 -1 0 616 0 617 -45 -1 -45 0 0 -615z m60
4 c0 -387 -3 -583 -10 -579 -5 3 -10 1 -10 -6 0 -7 -2 -10 -5 -7 -3 3 -6 264
-8 580 -2 548 0 596 26 598 4 0 7 -264 7 -586z"/>
<path d="M3840 2129 l0 -616 45 0 45 0 0 616 0 616 -45 0 -45 0 0 -616z m61
579 c-1 -5 -1 -269 -1 -588 0 -509 -2 -580 -15 -580 -13 0 -15 72 -15 591 0
528 2 590 16 587 8 -2 15 -6 15 -10z"/>
<path d="M4190 2641 c0 -6 4 -13 10 -16 6 -3 7 1 4 9 -7 18 -14 21 -14 7z"/>
<path d="M4160 2636 c0 -2 8 -10 18 -17 15 -13 16 -12 3 4 -13 16 -21 21 -21
13z"/>
<path d="M890 2130 l0 -480 40 0 40 0 0 480 0 480 -40 0 -40 0 0 -480z m60 -1
c-1 -269 -4 -441 -10 -444 -6 -4 -10 -1 -10 5 0 6 -3 9 -7 7 -6 -4 -8 631 -3
870 0 7 7 10 15 7 13 -6 15 -62 15 -445z"/>
<path d="M4080 2130 l0 -480 45 0 45 0 0 480 0 480 -45 0 -45 0 0 -480z m60
-2 c0 -246 -2 -448 -4 -448 -30 0 -31 11 -30 443 0 237 2 437 2 443 1 6 9 11
17 11 13 0 15 -57 15 -449z"/>
<path d="M4124 2130 c0 -113 2 -159 3 -102 2 56 2 148 0 205 -1 56 -3 10 -3
-103z"/>
<path d="M2385 2521 c-3 -5 -2 -12 3 -15 5 -3 9 1 9 9 0 17 -3 19 -12 6z"/>
<path d="M4260 2436 c0 -2 7 -7 16 -10 8 -3 12 -2 9 4 -6 10 -25 14 -25 6z"/>
<path d="M655 2130 l0 -270 45 0 45 0 0 270 0 270 -45 0 -45 0 0 -270z m61 -6
c0 -197 -1 -220 -6 -109 l-6 140 -4 -140 c-4 -127 -5 -117 -10 105 -3 135 -3
249 -2 253 2 4 9 6 15 4 9 -3 12 -73 13 -253z"/>
<path d="M4310 2130 l0 -270 45 0 45 0 0 270 0 270 -45 0 -45 0 0 -270z m66
226 c3 -8 2 -117 -3 -242 -6 -167 -11 -228 -20 -232 -10 -3 -13 50 -13 242 0
214 2 246 15 246 9 0 18 -6 21 -14z"/>
<path d="M1695 2310 c-3 -6 1 -7 9 -4 18 7 21 14 7 14 -6 0 -13 -4 -16 -10z"/>
<path d="M2275 2300 c-4 -6 1 -7 11 -3 10 4 15 2 11 -4 -3 -5 0 -10 8 -10 11
0 12 4 4 14 -14 15 -26 17 -34 3z"/>
<path d="M2759 2293 c-13 -16 -12 -17 4 -4 16 13 21 21 13 21 -2 0 -10 -8 -17
-17z"/>
<path d="M2805 2261 c-3 -5 -2 -12 3 -15 5 -3 9 1 9 9 0 17 -3 19 -12 6z"/>
<path d="M1764 2229 c-3 -6 -2 -15 4 -21 6 -6 12 -6 17 3 6 8 4 10 -5 4 -10
-6 -12 -4 -7 8 7 19 2 23 -9 6z"/>
<path d="M405 2184 c-32 -35 -32 -78 0 -109 51 -51 135 -17 135 55 0 73 -86
107 -135 54z m84 -3 c11 -1 11 -4 0 -18 -12 -14 -12 -15 0 -9 8 5 17 3 22 -5
12 -20 11 -31 -3 -23 -7 5 -9 2 -5 -9 3 -9 -1 -18 -11 -22 -23 -10 -71 -12
-65 -2 2 4 -1 7 -7 7 -13 0 -11 58 2 76 5 6 18 10 31 9 12 -1 28 -3 36 -4z"/>
<path d="M434 2148 l-19 -23 23 19 c21 18 27 26 19 26 -2 0 -12 -10 -23 -22z"/>
<path d="M4548 2196 c-29 -21 -41 -65 -27 -98 32 -77 139 -60 151 24 10 64
-73 113 -124 74z m87 -43 c-2 -7 0 -13 4 -13 5 0 12 -7 15 -16 3 -8 2 -12 -4
-9 -6 3 -10 0 -10 -8 0 -20 -26 -41 -35 -27 -3 6 -11 8 -16 4 -14 -8 -56 21
-56 40 0 8 5 12 10 9 6 -4 8 1 4 12 -6 14 -3 16 12 12 15 -3 18 -1 14 11 -5
11 -2 14 10 9 9 -3 17 -2 17 3 0 6 9 5 20 -2 11 -7 18 -19 15 -25z"/>
<path d="M4705 2171 c-3 -5 -2 -12 3 -15 5 -3 9 1 9 9 0 17 -3 19 -12 6z"/>
<path d="M4685 2060 c-3 -6 1 -7 9 -4 18 7 21 14 7 14 -6 0 -13 -4 -16 -10z"/>
<path d="M2426 1952 c-3 -5 1 -9 9 -9 8 0 12 4 9 9 -3 4 -7 8 -9 8 -2 0 -6 -4
-9 -8z"/>
<path d="M2374 1880 c-32 -15 -73 -39 -91 -54 -71 -60 -144 -206 -158 -316 -4
-30 -8 -57 -10 -60 -2 -3 -6 -27 -9 -55 -4 -27 -9 -57 -11 -65 -2 -8 -6 -37
-10 -65 -3 -27 -8 -57 -10 -65 -2 -8 -6 -33 -10 -55 -10 -67 -85 -528 -90
-555 l-5 -25 560 0 c493 0 559 2 556 15 -5 17 -14 62 -20 105 -8 49 -56 348
-61 376 -15 87 -45 270 -50 304 -4 22 -8 47 -10 55 -2 8 -7 38 -10 65 -23 191
-131 352 -271 405 -85 31 -209 27 -290 -10z m251 -3 c11 -3 23 -6 27 -6 4 -1
4 -9 1 -18 -7 -17 -6 -17 11 0 22 21 27 22 19 0 -5 -12 -3 -14 7 -8 8 5 18 1
27 -11 8 -10 16 -18 18 -17 5 3 46 -39 85 -86 22 -27 26 -51 8 -51 -6 0 -8 -3
-5 -6 4 -4 15 -1 24 7 10 7 15 9 11 5 -4 -5 -2 -16 5 -24 10 -13 9 -15 -8 -9
-19 7 -19 6 1 -11 11 -9 18 -24 16 -31 -3 -9 0 -11 9 -6 8 5 11 5 7 1 -4 -5
-3 -18 2 -30 9 -25 -3 -56 -14 -37 -4 6 -2 11 5 11 7 0 10 3 6 6 -3 3 -11 3
-17 -1 -8 -5 -8 -11 1 -21 9 -12 15 -12 27 -2 13 11 15 10 9 -6 -4 -10 -2 -25
5 -34 8 -9 8 -13 2 -9 -18 10 -35 -16 -22 -33 8 -12 9 -12 4 3 -7 21 10 23 18
1 3 -9 6 -32 6 -52 0 -28 -3 -33 -10 -22 -8 12 -9 10 -7 -7 2 -12 7 -26 12
-30 4 -5 5 -3 2 3 -4 7 -1 14 6 17 10 4 14 -8 15 -46 2 -29 7 -76 13 -105 6
-29 8 -60 5 -68 -3 -8 -2 -13 3 -10 5 3 12 -1 15 -10 4 -11 2 -15 -8 -11 -8 3
-20 -1 -26 -9 -7 -8 -17 -14 -22 -14 -6 0 -4 8 3 17 8 10 9 14 2 10 -7 -4 -16
0 -21 9 -8 15 -48 17 -369 20 -353 4 -360 4 -378 -16 -11 -12 -20 -33 -21 -48
-2 -15 -6 -38 -10 -51 -5 -18 -4 -23 7 -19 8 3 18 27 23 56 l9 52 364 0 c282
0 364 -3 367 -12 3 -7 7 -32 10 -55 l6 -43 -385 0 c-255 0 -384 -3 -380 -10 9
-14 762 -14 770 1 4 6 14 8 22 4 14 -5 14 -3 2 12 -12 15 -12 16 3 10 12 -4
15 -2 11 8 -3 8 -9 13 -13 10 -13 -8 -8 44 5 55 9 7 16 6 25 -5 7 -8 9 -15 5
-15 -4 0 -2 -7 5 -15 10 -12 10 -15 0 -15 -9 0 -9 -4 1 -17 12 -15 12 -16 -1
-8 -12 6 -13 5 -2 -6 6 -7 12 -17 12 -22 0 -4 -6 -5 -12 -2 -7 4 -6 1 2 -7 15
-13 17 -21 23 -93 1 -22 5 -44 8 -50 7 -11 21 -97 23 -135 1 -14 5 -31 9 -37
5 -8 3 -13 -5 -13 -8 0 -9 -3 -3 -8 6 -4 11 -20 12 -37 l0 -30 -131 7 c-72 4
-286 7 -476 7 -190 0 -364 0 -388 0 l-43 1 2 49 c2 40 5 48 18 43 14 -5 14 -3
2 11 -11 14 -11 17 0 17 11 0 11 2 0 9 -12 7 -12 13 -3 24 7 7 9 16 6 20 -3 3
0 15 6 27 8 15 8 20 1 16 -13 -8 -14 -4 -5 18 3 9 10 13 15 10 5 -3 9 -1 9 5
0 5 -5 13 -10 16 -6 4 -7 11 -4 17 4 5 9 33 11 62 3 28 11 61 18 72 10 16 11
24 2 33 -8 8 -8 11 1 11 10 0 10 5 2 20 -6 11 -7 20 -1 20 5 0 12 -7 15 -16 7
-19 26 -9 25 14 0 14 -2 13 -8 -3 l-8 -20 -6 20 c-4 11 -2 47 4 80 5 33 10 75
12 93 1 18 9 37 17 42 9 6 10 10 3 10 -10 0 -11 13 -4 73 1 4 5 7 11 7 5 0 8
-6 6 -12 -1 -7 -1 -9 2 -5 2 5 13 0 24 -9 16 -16 21 -16 28 -4 6 8 10 23 11
33 1 9 3 22 4 27 1 6 3 17 4 25 1 13 43 15 311 15 289 0 310 -1 310 -17 0 -10
3 -35 6 -55 l7 -38 -325 0 c-264 0 -328 -3 -344 -14 -10 -8 -16 -18 -11 -22 4
-4 7 -2 7 4 0 7 4 12 10 12 6 0 5 -10 -2 -25 -6 -13 -15 -22 -21 -18 -5 3 -7
0 -5 -8 3 -8 -4 -25 -16 -39 -16 -19 -17 -21 -2 -10 17 14 18 12 15 -32 -3
-39 -2 -45 14 -43 9 2 17 0 17 -6 0 -5 7 -9 16 -9 8 0 13 3 11 8 -3 4 146 6
331 5 385 -1 367 -5 351 81 -9 51 -42 91 -65 78 -7 -4 -148 -5 -314 -2 -172 3
-305 1 -310 -4 -5 -5 -8 0 -7 12 0 11 5 18 11 15 5 -3 138 -6 295 -6 179 1
291 -3 299 -9 8 -7 12 -7 12 1 0 7 4 10 9 7 5 -3 14 1 21 9 7 8 19 15 27 15
13 0 13 3 3 15 -7 9 -10 18 -7 22 4 3 1 13 -6 21 -10 13 -9 14 3 7 9 -5 7 1
-5 15 -11 13 -14 20 -7 16 6 -4 12 -3 12 2 0 5 -16 17 -35 26 -30 15 -75 17
-332 16 -289 -2 -323 -5 -323 -33 0 -6 6 -2 14 9 8 10 17 16 20 13 3 -3 -2
-14 -12 -25 -9 -10 -17 -34 -17 -51 1 -36 -6 -41 -25 -18 -7 8 -9 15 -6 15 4
0 0 10 -8 22 -11 15 -12 25 -5 34 6 7 12 30 15 51 2 21 9 59 15 85 11 41 15
46 27 35 13 -10 14 -9 2 13 l-13 25 27 -24 c17 -17 22 -27 15 -32 -6 -4 -9
-11 -5 -17 3 -6 2 -13 -4 -17 -13 -8 -8 -38 9 -59 12 -14 49 -16 293 -16 238
0 282 2 303 16 23 15 24 18 10 44 -16 31 -20 54 -6 32 7 -11 9 -10 14 3 4 9 3
13 -3 10 -11 -7 -32 29 -22 39 3 4 -2 4 -13 0 -14 -6 -17 -4 -13 7 5 12 -32
14 -249 12 -225 -2 -254 -1 -249 13 3 8 2 12 -4 9 -6 -3 -10 -13 -10 -22 0
-10 -6 -13 -16 -9 -8 3 -12 2 -9 -3 13 -21 -19 -23 -36 -2 -18 22 -18 23 4 54
12 18 27 35 32 39 6 4 6 8 1 8 -5 0 -3 7 4 15 7 8 16 13 20 10 5 -3 11 4 15
15 4 11 10 18 15 15 5 -3 15 2 24 11 9 8 21 12 28 8 8 -5 7 0 -2 11 -10 12
-10 16 -2 11 7 -4 20 -2 29 6 14 11 16 11 8 -2 -7 -12 -4 -11 11 1 10 10 28
19 38 20 27 5 157 2 181 -4z m182 -284 l23 -53 -300 0 -300 0 20 53 c11 28 20
53 20 55 0 1 116 1 257 0 l257 -3 23 -52z m57 -301 c2 -4 7 -28 10 -54 l7 -48
-354 0 -354 0 10 55 10 55 333 0 c184 -1 335 -4 338 -8z"/>
<path d="M2512 1839 c-75 -7 -168 -46 -186 -77 -8 -14 -10 -14 -17 3 -6 17 -6
-23 0 -67 1 -11 413 -9 430 1 8 5 16 17 17 25 1 9 -1 14 -6 11 -4 -3 -11 2
-14 11 -4 10 -1 13 7 9 6 -3 3 0 -7 7 -11 7 -27 20 -36 29 -9 8 -22 13 -30 11
-8 -3 -10 0 -5 8 5 8 4 11 -3 6 -6 -3 -18 1 -26 10 -12 11 -16 12 -16 2 0 -10
-3 -9 -10 2 -5 8 -10 11 -10 5 0 -7 -3 -6 -8 0 -4 7 -34 8 -80 4z m134 -54
c28 -14 61 -36 74 -50 l23 -25 -219 0 -219 1 35 30 c19 17 34 35 32 40 -1 6 2
8 7 5 5 -3 26 1 47 8 65 24 162 20 220 -9z"/>
<path d="M2455 1750 c-3 -6 1 -7 9 -4 18 7 21 14 7 14 -6 0 -13 -4 -16 -10z"/>
<path d="M2738 1783 c7 -3 16 -2 19 1 4 3 -2 6 -13 5 -11 0 -14 -3 -6 -6z"/>
<path d="M2268 1733 c7 -3 16 -2 19 1 4 3 -2 6 -13 5 -11 0 -14 -3 -6 -6z"/>
<path d="M2266 1705 c-11 -8 -15 -15 -9 -15 6 0 16 7 23 15 16 19 11 19 -14 0z"/>
<path d="M2845 1580 c-3 -5 -1 -10 4 -10 6 0 11 5 11 10 0 6 -2 10 -4 10 -3 0
-8 -4 -11 -10z"/>
<path d="M2821 1510 c-9 -5 -4 -7 13 -7 29 0 32 2 13 10 -8 3 -20 2 -26 -3z"/>
<path d="M2140 1455 c0 -2 6 -8 13 -14 10 -8 14 -7 14 2 0 8 -6 14 -14 14 -7
0 -13 -1 -13 -2z"/>
<path d="M2146 1348 c3 -5 10 -6 15 -3 13 9 11 12 -6 12 -8 0 -12 -4 -9 -9z"/>
<path d="M2881 1334 c0 -11 3 -14 6 -6 3 7 2 16 -1 19 -3 4 -6 -2 -5 -13z"/>
<path d="M2951 1074 c0 -11 3 -14 6 -6 3 7 2 16 -1 19 -3 4 -6 -2 -5 -13z"/>
<path d="M2070 976 c0 -2 8 -10 18 -17 15 -13 16 -12 3 4 -13 16 -21 21 -21
13z"/>
<path d="M2112 970 c2 -23 -13 -70 -21 -65 -4 2 -8 -2 -8 -10 0 -8 4 -12 9 -9
4 3 6 -5 5 -18 -2 -13 3 -29 12 -36 14 -12 14 -13 -2 -8 -11 4 -16 2 -11 -5 3
-6 14 -9 24 -6 11 3 21 -1 23 -7 4 -9 -7 -12 -33 -11 -22 1 -37 -2 -34 -7 3
-5 11 -6 17 -2 7 3 4 -1 -5 -9 -10 -8 -16 -16 -13 -18 2 -3 0 -21 -4 -42 -7
-28 -5 -41 8 -56 16 -19 34 -20 452 -21 429 -1 434 0 447 20 7 11 10 26 6 32
-4 5 -1 13 5 17 13 8 -14 71 -30 71 -6 0 -7 4 -4 10 4 6 -1 7 -11 3 -13 -5
-15 -3 -9 7 5 9 4 11 -4 6 -16 -10 -764 -7 -773 2 -5 5 156 8 357 8 245 0 365
-4 365 -11 0 -5 4 -4 9 4 5 7 13 11 19 7 5 -3 20 2 33 13 24 19 34 51 17 51
-6 0 -4 7 3 17 8 10 9 14 2 10 -18 -11 -21 45 -3 61 12 11 11 11 -10 1 -18 -9
-25 -9 -28 -1 -3 9 -9 9 -24 1 -15 -8 -19 -8 -14 0 5 8 -97 11 -364 11 -245 0
-369 -3 -365 -10 3 -5 -3 -10 -14 -10 -10 0 -22 6 -25 13 -4 8 -5 7 -4 -3z
m814 -47 c2 -10 6 -33 9 -50 l6 -33 -412 0 -412 0 7 38 c3 20 6 44 6 52 0 13
50 15 397 13 374 -2 397 -3 399 -20z m33 -203 c6 -28 11 -52 11 -53 0 -1 -198
-1 -440 1 l-441 2 7 38 c4 20 7 43 7 50 0 9 92 12 423 12 l422 0 11 -50z"/>
<path d="M2043 773 c0 -12 4 -20 8 -17 4 2 10 -2 12 -8 3 -7 6 -8 6 -2 1 5 -5
19 -13 30 -14 19 -15 18 -13 -3z"/>
<path d="M4260 1845 c-11 -13 -10 -14 4 -9 9 3 16 10 16 15 0 13 -6 11 -20 -6z"/>
<path d="M1260 1530 c-9 -6 -10 -10 -3 -10 6 0 15 5 18 10 8 12 4 12 -15 0z"/>
<path d="M3103 743 c4 -3 1 -13 -6 -22 -11 -14 -10 -14 5 -2 16 12 16 31 1 31
-4 0 -3 -3 0 -7z"/>
<path d="M1925 621 c-3 -5 -2 -12 3 -15 5 -3 9 1 9 9 0 17 -3 19 -12 6z"/>
<path d="M1929 573 c-13 -16 -12 -17 4 -4 16 13 21 21 13 21 -2 0 -10 -8 -17
-17z"/>
</g>
</svg>
